<svg width="24" height="25" viewBox="0 0 24 25" fill="none" xmlns="http://www.w3.org/2000/svg">
<path d="M4.82504 18.45C5.81671 17.6917 6.92504 17.0938 8.15004 16.6562C9.37504 16.2188 10.6584 16 12 16C13.3417 16 14.625 16.2188 15.85 16.6562C17.075 17.0938 18.1834 17.6917 19.175 18.45C19.8556 17.6528 20.3855 16.7486 20.7646 15.7375C21.1438 14.7264 21.3334 13.6472 21.3334 12.5C21.3334 9.91389 20.4243 7.7118 18.6063 5.89375C16.7882 4.07569 14.5862 3.16667 12 3.16667C9.41393 3.16667 7.21185 4.07569 5.39379 5.89375C3.57574 7.7118 2.66671 9.91389 2.66671 12.5C2.66671 13.6472 2.85629 14.7264 3.23546 15.7375C3.61462 16.7486 4.14449 17.6528 4.82504 18.45ZM12 13.6667C10.8528 13.6667 9.88546 13.2729 9.09796 12.4854C8.31046 11.6979 7.91671 10.7306 7.91671 9.58333C7.91671 8.43611 8.31046 7.46875 9.09796 6.68125C9.88546 5.89375 10.8528 5.5 12 5.5C13.1473 5.5 14.1146 5.89375 14.9021 6.68125C15.6896 7.46875 16.0834 8.43611 16.0834 9.58333C16.0834 10.7306 15.6896 11.6979 14.9021 12.4854C14.1146 13.2729 13.1473 13.6667 12 13.6667ZM12 24.1667C10.3862 24.1667 8.86949 23.8604 7.45004 23.2479C6.0306 22.6354 4.79587 21.8042 3.74587 20.7542C2.69587 19.7042 1.86462 18.4694 1.25212 17.05C0.639624 15.6306 0.333374 14.1139 0.333374 12.5C0.333374 10.8861 0.639624 9.36944 1.25212 7.95C1.86462 6.53055 2.69587 5.29583 3.74587 4.24583C4.79587 3.19583 6.0306 2.36458 7.45004 1.75208C8.86949 1.13958 10.3862 0.833332 12 0.833332C13.6139 0.833332 15.1306 1.13958 16.55 1.75208C17.9695 2.36458 19.2042 3.19583 20.2542 4.24583C21.3042 5.29583 22.1355 6.53055 22.748 7.95C23.3605 9.36944 23.6667 10.8861 23.6667 12.5C23.6667 14.1139 23.3605 15.6306 22.748 17.05C22.1355 18.4694 21.3042 19.7042 20.2542 20.7542C19.2042 21.8042 17.9695 22.6354 16.55 23.2479C15.1306 23.8604 13.6139 24.1667 12 24.1667Z" fill="white"/>
</svg>
